<svg width="1269" height="1000" viewBox="0 0 1269 1000" fill="none" xmlns="http://www.w3.org/2000/svg">
<path d="M919.562 228.93V247.758C919.562 264.326 932.994 277.758 949.563 277.758H987.219C1003.79 277.758 1017.22 264.326 1017.22 247.758V210.102C1017.22 193.533 1003.79 180.102 987.219 180.102H949.563C932.994 180.102 919.562 193.533 919.562 210.102V228.93ZM998.258 225.031C998.258 225.027 998.262 225.024 998.266 225.025C1000.6 225.569 1002.72 226.791 1004.37 228.539V228.539C1006.14 230.389 1005.65 232.492 1003.51 233.914C1002.31 234.716 1000.98 235.581 999.922 236.234C999.828 236.297 999.453 235.891 999.039 235.273C998.57 234.464 997.903 233.786 997.101 233.304C996.299 232.822 995.388 232.551 994.453 232.516C991.492 232.312 989.586 233.867 989.602 236.422C989.577 237.058 989.723 237.689 990.023 238.25C990.672 239.602 991.883 240.406 995.68 242.047C1002.67 245.055 1005.66 247.039 1007.52 249.859C1009.6 252.984 1010.06 258.031 1008.66 261.766C1007.09 265.828 1003.27 268.586 997.852 269.5C995.379 269.783 992.88 269.757 990.414 269.422C986.65 268.811 983.178 267.019 980.5 264.305C979.923 263.668 978.996 262.375 978.435 261.481C978.061 260.886 978.24 260.301 978.859 259.969V259.969L982.453 257.906L984.352 256.806C984.862 256.51 985.514 256.66 985.844 257.148V257.148C986.833 258.563 988.091 259.768 989.547 260.695C992.672 262.336 996.937 262.109 999.047 260.211C999.755 259.515 1000.2 258.593 1000.3 257.605C1000.39 256.618 1000.14 255.626 999.586 254.805C998.805 253.719 997.242 252.805 992.875 250.898C987.836 248.727 985.664 247.383 983.68 245.242C982.441 243.83 981.526 242.163 981 240.359C980.607 238.299 980.549 236.188 980.828 234.109C981.867 229.242 985.516 225.844 990.844 224.836C993.309 224.531 995.806 224.599 998.25 225.038C998.254 225.038 998.258 225.035 998.258 225.031V225.031ZM975.336 229.117V229.117C975.336 231.326 973.545 233.117 971.336 233.117H968.996C965.495 233.117 962.656 235.956 962.656 239.457V264.738C962.656 267.221 960.643 269.234 958.16 269.234V269.234C955.677 269.234 953.664 267.221 953.664 264.738V239.465C953.664 235.955 950.819 233.109 947.309 233.109H944.859C942.702 233.109 940.953 231.36 940.953 229.203V229.203V229.203C940.886 226.568 942.459 225.124 945.095 225.109C948.262 225.091 953.004 225.085 958.25 225.094H971.265C973.495 225.094 975.31 226.888 975.336 229.117V229.117Z" fill="#007ACC"/>
<path d="M50.6559 76.0428C50.6559 76.0428 47.6289 73.8518 51.2659 70.9298L59.7339 63.3358C59.7339 63.3358 62.1599 60.7768 64.7229 63.0078L142.898 122.336V150.786C142.898 150.786 142.859 155.254 137.141 154.762L50.6559 76.0428Z" fill="#2489CA"/>
<path d="M70.8088 94.3789L50.6558 112.742C50.6558 112.742 48.5858 114.285 50.6558 117.047L60.0118 125.574C60.0118 125.574 62.2338 127.969 65.5198 125.246L86.8788 109.008L70.8088 94.3789Z" fill="#1070B3"/>
<path d="M106.184 94.5309L143.137 66.2459L142.898 37.9489C142.898 37.9489 141.32 31.7729 136.055 34.9899L86.8789 79.8509L106.184 94.5309Z" fill="#0877B9"/>
<path d="M137.14 154.797C139.285 157 141.887 156.277 141.887 156.277L170.684 142.055C174.371 139.535 173.855 136.41 173.855 136.41V51.4649C173.855 47.7299 170.043 46.4409 170.043 46.4409L145.082 34.3799C139.629 31.0009 136.055 34.9899 136.055 34.9899C136.055 34.9899 140.648 31.6729 142.898 37.9499V150.267C142.898 151.04 142.734 151.797 142.406 152.481C141.75 153.813 140.32 155.051 136.902 154.532L137.14 154.797Z" fill="#3C99D4"/>
<path d="M313.537 232.258L314.536 232.234L314.512 231.234L313.819 202.904L352.484 254.204C345.136 258.276 336.691 260.724 327.649 260.945C297.874 261.674 273.073 238.057 272.344 208.282C271.616 178.507 295.233 153.706 325.008 152.978C354.783 152.25 379.584 175.867 380.312 205.641C380.768 224.263 371.748 240.842 357.682 250.885L313.278 187.642L312.97 187.204L312.435 187.217L306.593 187.36L305.593 187.385L305.618 188.384L306.671 231.426L306.695 232.426L307.695 232.401L313.537 232.258ZM344.928 224.768L346.828 227.485L346.747 224.171L345.848 187.4L345.824 186.401L344.824 186.425L338.38 186.583L337.381 186.607L337.405 187.607L338.067 214.669L338.074 214.971L338.247 215.218L344.928 224.768Z" fill="black" stroke="white" stroke-width="2"/>
<path d="M1132.76 18L1142.82 130.883L1187.93 143.463L1233.18 130.837L1243.24 18H1132.76ZM1222.35 43.862L1219 81.467L1219.01 81.67L1219 82.137V82.133L1216.62 108.427L1216.36 110.763L1188 118.607V118.608L1187.98 118.627L1159.67 110.739L1157.75 89H1171.63L1172.62 100.054L1188 104.224L1188 104.232V104.23L1203.44 100.001L1205.08 82H1172.79L1172.52 78.957L1171.88 71.828L1171.55 68H1206.3L1207.57 54H1154.64L1154.36 50.959L1153.73 43.828L1153.4 40H1222.68L1222.35 43.862V43.862Z" fill="#1572B6"/>
<path d="M263.102 356.699L228.652 336.695C226.479 335.457 223.65 335.457 221.46 336.695L186.641 356.699C184.399 357.988 182.812 360.413 182.812 363.006V402.96C182.812 405.553 184.441 407.978 186.683 409.275L195.882 414.5C200.279 416.666 201.833 416.666 203.834 416.666C210.344 416.666 214.062 412.729 214.062 405.863V366.417C214.062 365.86 213.773 365.031 213.226 365.031H208.833C208.277 365.031 207.031 365.86 207.031 366.417V405.862C207.031 408.906 204.278 411.935 199.133 409.362L189.627 403.883C189.296 403.703 189.062 403.342 189.062 402.96V363.006C189.062 362.629 189.496 362.251 189.83 362.058L224.536 342.088C224.86 341.905 225.337 341.905 225.66 342.088L259.943 362.053C260.271 362.251 260.155 362.617 260.155 363.006V402.96C260.155 403.342 260.298 403.713 259.974 403.896L225.532 423.878C225.237 424.055 224.87 424.055 224.547 423.878L215.713 418.605C215.447 418.45 215.13 418.395 214.875 418.538C212.417 419.931 211.964 420.116 209.659 420.915C209.091 421.113 208.255 421.456 209.979 422.422L221.54 429.261C222.644 429.899 223.896 430.234 225.17 430.235C226.453 430.235 227.709 429.902 228.816 429.261L263.102 409.275C265.344 407.969 266.406 405.553 266.406 402.96V363.006C266.406 360.413 265.344 357.995 263.102 356.699V356.699ZM235.867 396.629C226.706 396.629 224.688 394.102 224.016 389.546C223.938 389.056 223.521 388.469 223.022 388.469H218.545C217.991 388.469 217.545 389.141 217.545 389.692C217.545 395.525 220.716 402.592 235.868 402.592C246.836 402.592 253.124 398.331 253.124 390.788C253.124 383.31 248.072 381.348 237.435 379.94C226.684 378.519 225.591 377.801 225.591 375.282C225.591 373.206 226.516 370.436 234.477 370.436C241.591 370.436 244.212 371.963 245.291 376.757C245.384 377.208 245.795 377.531 246.26 377.531H250.755C251.032 377.531 251.296 377.42 251.49 377.222C251.677 377.01 251.777 376.743 251.752 376.457C251.055 368.201 245.57 364.353 234.477 364.353C224.609 364.353 218.722 368.521 218.722 375.506C218.722 383.082 224.579 385.176 234.052 386.113C245.384 387.224 246.265 388.88 246.265 391.109C246.265 394.98 243.157 396.629 235.867 396.629Z" fill="#83CD29"/>
<path d="M1178.95 263.001C1143.7 263.001 1115 291.696 1115 326.951C1115 362.206 1143.7 390.901 1178.95 390.901C1214.21 390.901 1242.9 362.206 1242.9 326.951C1242.9 291.696 1214.21 263.001 1178.95 263.001H1178.95ZM1178.95 273.68C1208.43 273.68 1232.22 297.467 1232.22 326.951C1232.22 356.436 1208.43 380.223 1178.95 380.223C1149.47 380.223 1125.68 356.436 1125.68 326.951C1125.68 297.467 1149.47 273.68 1178.95 273.68Z" fill="#010101"/>
<path fill-rule="evenodd" clip-rule="evenodd" d="M1163.39 323.716C1177.39 312.276 1191.09 300.438 1205.4 289.332C1197.9 300.865 1190.18 312.245 1182.67 323.777C1176.24 323.807 1169.8 323.807 1163.39 323.716V323.716ZM1175.23 330.092C1181.7 330.092 1188.13 330.092 1194.57 330.184C1180.48 341.564 1166.84 353.493 1152.5 364.568C1160 353.035 1167.72 341.625 1175.23 330.092V330.092Z" fill="#010101"/>
<path d="M1023.65 435.25L1029.9 505.308L1057.96 513.059L1086.1 505.317L1092.36 435.25H1023.65ZM1079.35 451.837L1078.96 456.319L1078.78 458.375H1045.87L1046.65 467.125H1078L1077.79 469.294L1075.77 491.869L1075.62 493.288L1058 498.131V498.132L1057.98 498.143L1040.37 493.504L1039.17 480.25H1047.81L1048.42 487.074L1057.97 489.625H1058V489.284L1067.6 486.862L1068.6 475.875H1038.79L1036.67 452.052L1036.47 449.625H1079.56L1079.35 451.837Z" fill="#E44D26"/>
<path d="M75.4375 500.625C82.875 500.625 88.875 494.625 88.875 487.188V473.75H75.4375C68 473.75 62 479.75 62 487.188C62 494.625 68 500.625 75.4375 500.625Z" fill="#0ACF83"/>
<path d="M62 460.312C62 452.875 68 446.875 75.4375 446.875H88.875V473.75H75.4375C68 473.75 62 467.75 62 460.312Z" fill="#A259FF"/>
<path d="M62 433.438C62 426 68 420 75.4375 420H88.875V446.875H75.4375C68 446.875 62 440.875 62 433.438Z" fill="#F24E1E"/>
<path d="M88.875 420H102.312C109.75 420 115.75 426 115.75 433.438C115.75 440.875 109.75 446.875 102.312 446.875H88.875V420Z" fill="#FF7262"/>
<path d="M115.75 460.312C115.75 467.75 109.75 473.75 102.312 473.75C94.875 473.75 88.875 467.75 88.875 460.312C88.875 452.875 94.875 446.875 102.312 446.875C109.75 446.875 115.75 452.875 115.75 460.312Z" fill="#1ABCFE"/>
</svg>
