<svg width="1000" height="1000" viewBox="0 0 1000 1000" fill="none" xmlns="http://www.w3.org/2000/svg">
<mask id="mask0_1423_1816" style="mask-type:alpha" maskUnits="userSpaceOnUse" x="0" y="0" width="997" height="997">
<circle cx="498.361" cy="498.361" r="498.361" fill="#D9D9D9"/>
</mask>
<g mask="url(#mask0_1423_1816)">
<rect width="1000" height="1000" fill="#CDE41E"/>
<path d="M941.83 275.49C1140.2 657.516 791.503 1088.56 375.817 983.333C189.216 936.928 39.2157 775.163 8.16995 585.294C-27.1242 396.405 58.1699 193.464 217.647 86.6013C436.274 -63.7255 739.216 -13.7255 895.752 201.307C896.732 202.288 896.405 203.922 895.098 204.902C894.118 205.882 892.484 205.556 891.503 204.248C869.935 176.471 845.425 151.307 818.627 128.758C774.51 91.1765 722.876 61.7647 668.301 41.8301C390.523 -58.8235 85.6209 108.497 24.8366 399.02C-43.7908 724.51 233.007 1024.18 563.072 979.412C817.647 947.386 1006.86 712.418 985.948 456.863C981.373 395.098 965.033 333.987 937.908 277.778C937.255 276.797 937.908 275.49 938.889 274.837C939.869 274.183 941.176 274.51 941.83 275.49Z" fill="black"/>
<path d="M816.338 956.209C810.129 907.843 782.678 826.47 766.012 804.575C747.711 780.718 740.195 773.202 679.084 752.614C675.816 736.274 663.724 695.097 649.345 677.777C627.45 644.771 567.646 637.254 549.672 641.176C549.672 641.176 452.94 607.189 341.502 607.189C306.208 615.032 265.358 631.045 243.136 664.705C228.103 686.928 245.097 694.117 237.58 714.379C235.62 719.607 189.868 745.751 171.241 761.437C162.744 768.3 153.267 785.62 146.731 808.169C133.659 854.248 147.711 917.973 131.371 973.529C99.9987 1080.72 36.2732 1112.74 36.2732 1112.74H880.718C880.064 1112.42 829.737 1058.17 816.338 956.209Z" fill="#F7F7F7"/>
<path d="M811.438 956.863C804.902 914.053 791.83 871.569 775.163 831.7C766.993 812.419 754.575 793.791 737.255 782.353C728.431 776.798 718.627 772.55 708.497 768.301C698.366 764.38 687.908 760.785 677.778 757.19C676.144 756.536 674.836 755.229 674.51 753.595C673.202 747.059 671.568 740.85 669.608 734.314C661.111 707.844 651.961 678.432 627.124 663.072C608.17 651.635 585.621 646.079 563.725 645.099C559.477 645.099 554.902 645.099 550.98 645.752H549.673C549.346 645.752 548.693 645.752 548.366 645.425C532.68 637.909 515.359 633.334 498.366 628.759C447.385 616.994 394.118 612.092 341.83 611.765C309.804 619.282 265.033 636.929 245.425 669.608C242.157 674.837 240.523 680.066 241.176 685.948C241.83 692.484 244.118 699.674 242.484 706.536C241.83 709.478 241.176 712.746 239.869 715.36C237.255 718.955 233.006 721.242 229.738 723.53C212.745 734.641 195.425 744.445 179.085 755.883C173.529 759.804 168.301 763.399 164.379 768.955C152.941 785.295 146.078 804.903 143.137 824.51C137.908 864.38 143.137 904.903 137.908 944.772C132.026 984.641 116.667 1023.2 95.0979 1057.19C80.0653 1080.07 61.7646 1101.31 38.562 1116.01L36.2744 1106.86H880.719L877.124 1115.03C867.32 1103.92 859.477 1091.83 852.287 1079.09C830.065 1041.83 816.993 999.674 811.438 956.863ZM821.242 955.556C824.836 983.334 831.699 1010.78 842.157 1036.93C852.614 1062.75 865.686 1087.91 883.987 1109.15C886.601 1112.09 884.314 1117.65 880.392 1117.32H35.9476C33.3332 1117.32 31.0457 1115.03 31.0457 1112.42C31.0457 1110.46 32.026 1108.82 33.66 1108.17C38.8888 1105.23 44.1175 1100.98 49.0195 1096.73C91.83 1058.17 118.627 1000.98 127.451 944.118C134.967 890.85 120.915 833.334 144.771 782.68C150.327 770.916 157.189 758.497 168.301 750.981C188.562 735.948 210.784 724.837 230.719 710.131C231.046 710.131 231.046 709.804 231.046 709.804C230.719 710.131 230.392 710.785 230.392 711.112C232.353 706.537 233.006 702.615 232.353 697.386C231.372 690.85 229.738 682.027 232.026 675.164C233.006 671.242 234.967 667.648 236.928 664.706C260.457 629.412 301.961 613.726 341.503 604.903C352.614 605.229 364.052 603.269 375.163 603.269C390.523 603.269 406.209 605.556 421.569 607.517C465.686 614.38 508.17 626.144 551.634 635.621L548.693 635.295C558.823 633.334 568.301 634.314 578.104 635.621C640.85 645.099 662.091 672.55 679.085 731.046C681.046 737.582 682.68 744.118 684.314 750.981L681.046 747.059C712.418 758.171 747.712 768.301 767.647 797.386C774.836 806.21 780.065 816.667 784.64 827.125C801.307 868.955 814.379 911.112 821.242 955.556Z" fill="black"/>
<path d="M301.308 741.178C325.491 792.812 363.073 836.603 407.844 871.243C409.478 872.55 407.844 875.165 405.883 874.184C366.014 855.23 332.354 822.877 312.419 783.662C305.883 770.59 300.328 756.537 298.367 741.832C297.713 740.198 300.328 739.544 301.308 741.178Z" fill="black"/>
<path d="M683.988 751.962C684.968 806.537 662.746 862.419 620.262 897.714C619.282 898.694 617.975 898.367 616.994 897.387C616.014 896.406 616.341 895.099 617.321 894.119C626.798 884.968 636.275 875.491 643.465 864.38C658.498 842.812 667.648 817.321 671.896 791.504C673.857 778.759 675.164 765.034 674.184 752.289C673.857 746.08 683.661 745.426 683.988 751.962Z" fill="black"/>
<path d="M491.503 881.7C483.987 908.17 477.778 936.929 481.372 964.38C482.353 970.589 472.876 972.223 471.568 965.687C469.935 950.654 471.895 935.948 474.51 921.569C477.451 907.19 481.046 893.465 485.948 879.739C487.255 876.471 492.81 878.105 491.503 881.7Z" fill="black"/>
<path d="M595.425 876.798C606.209 900 613.725 924.183 619.608 948.693C620.261 951.308 618.627 953.922 616.013 954.576C613.399 955.229 610.784 953.595 610.131 950.981C606.863 932.68 602.614 914.379 596.732 896.406C594.771 890.523 592.81 884.641 590.523 878.759C589.216 875.817 593.791 873.53 595.425 876.798Z" fill="black"/>
<path d="M244.444 713.072C256.536 779.085 302.941 834.968 358.823 870.589C377.778 882.68 398.039 893.138 418.954 901.634C420.261 902.288 420.915 903.595 420.261 904.902C419.934 906.209 418.3 906.863 417.32 906.209C395.751 898.366 374.836 888.562 355.229 876.798C315.359 853.268 280.392 820.589 256.863 780.719C244.771 760.131 235.294 738.562 230.719 715.033C230.065 711.111 232.68 707.517 236.601 706.863C240.196 705.883 244.117 708.824 244.444 713.072Z" fill="black"/>
<path d="M471.894 971.569C462.743 970.589 456.208 962.092 458.168 952.942L461.763 935.622C463.07 928.759 469.606 923.857 476.469 924.837C483.332 925.491 488.887 931.373 488.887 938.563V956.21C489.214 965.36 481.371 972.55 471.894 971.569Z" fill="black"/>
<path d="M622.549 959.478C613.725 962.746 604.248 957.517 601.961 948.367L597.712 931.046C596.078 924.184 599.673 917.321 606.536 914.707C613.072 912.419 620.588 915.36 623.529 921.569L631.372 937.582C635.294 946.406 631.372 956.537 622.549 959.478Z" fill="black"/>
<path d="M773.529 949.674C773.529 949.674 791.83 1052.29 784.64 1112.42" stroke="black" stroke-width="5.1257" stroke-miterlimit="10" stroke-linecap="round" stroke-linejoin="round"/>
<path d="M346.731 701.308C342.156 688.236 340.195 674.838 341.175 661.112C341.175 659.805 342.156 659.151 343.463 659.151C344.443 659.151 345.424 660.132 345.424 661.112C346.404 673.53 349.999 686.276 355.881 697.06C358.822 703.596 349.018 707.844 346.731 701.308Z" fill="black"/>
<path d="M567.646 718.628C558.495 698.04 535.946 687.582 516.012 680.393C503.593 676.471 489.868 673.53 476.796 671.569C445.097 666.667 400.325 659.151 368.626 655.883C368.299 655.883 368.299 655.229 368.626 655.229C377.776 654.249 386.927 654.249 396.077 654.249C423.528 654.903 450.979 657.844 478.103 662.092C505.227 666.341 534.312 674.51 554.9 694.118C561.436 700.981 567.319 708.824 568.953 718.301C569.28 719.282 567.972 719.608 567.646 718.628Z" fill="black"/>
<path d="M598.037 802.615C591.174 836.275 546.73 856.536 471.893 826.144C394.116 794.772 360.455 719.935 351.959 697.713C398.037 611.438 366.011 551.634 366.011 551.634C472.22 542.484 565.031 666.667 565.031 666.667L579.41 728.105C580.717 733.334 583.331 737.909 587.253 741.177C594.116 753.268 602.286 781.046 598.037 802.615Z" fill="#F7F7F7"/>
<path d="M350.326 698.693C356.535 689.216 360.457 678.105 363.071 667.321C367.973 644.771 369.607 621.896 369.934 599.02V590.523C368.954 582.026 366.012 573.203 362.744 565.36C358.496 554.902 373.856 548.366 378.758 558.824C379.411 560.131 379.411 562.419 379.411 563.726C380.392 608.17 382.352 665.36 354.248 702.288C352.287 704.249 348.365 701.307 350.326 698.693Z" fill="black"/>
<path d="M568.626 666.014C573.528 668.955 575.162 672.876 575.815 676.798C577.776 684.641 577.122 693.138 579.083 701.308C580.717 709.151 585.619 716.667 586.926 724.837C588.56 733.334 593.462 751.308 595.423 760.131C596.077 762.092 594.77 764.38 592.482 764.706C591.175 765.033 590.194 764.706 589.214 764.053C584.966 760.458 583.005 756.863 580.39 752.288C576.142 744.445 573.201 737.255 570.587 728.432C568.299 720.589 569.279 712.092 567.319 703.922C565.685 696.079 561.109 688.563 559.475 680.393C558.495 676.471 558.168 672.223 561.109 667.321C563.07 665.36 566.338 664.706 568.626 666.014Z" fill="black"/>
<path d="M592.156 752.288C529.738 749.02 478.758 729.412 429.084 640.85C470.915 677.778 520.261 691.83 572.222 698.366L579.084 728.432C580.392 733.661 588.235 749.02 592.156 752.288Z" fill="black"/>
<path d="M589.543 740.197C600.654 761.112 607.19 787.255 600.327 810.458C595.099 826.798 580.066 838.889 563.726 843.465C525.818 853.595 482.027 837.582 448.367 819.608C406.863 796.406 376.144 757.517 356.537 715.033C355.229 711.765 359.805 709.151 361.765 712.419C368.628 726.144 376.471 739.543 385.295 751.634C394.118 764.053 404.249 775.491 415.687 785.621C449.02 815.687 494.118 834.314 539.216 834.314C585.622 833.007 603.269 808.497 592.484 763.399C590.85 756.21 588.236 748.693 584.641 742.484C582.68 739.87 587.582 736.929 589.543 740.197Z" fill="black"/>
<path d="M716.012 347.713C721.895 375.163 724.836 397.386 708.823 470.588C693.137 543.464 731.372 558.497 640.849 675.163C603.921 722.876 514.378 709.477 441.829 660.131C417.32 643.464 406.862 600.654 388.561 570.262C374.182 546.405 367.646 571.242 348.692 550.654C322.875 522.549 291.829 466.013 307.189 366.013C332.025 203.922 460.457 184.967 555.555 202.941C651.306 221.242 700.326 275.49 716.012 347.713Z" fill="#F7F7F7"/>
<path d="M365.032 579.739C357.516 566.994 347.712 555.883 338.561 544.118C329.738 532.026 322.548 518.628 316.666 504.902C277.777 409.477 292.81 275.164 388.235 218.955C427.777 196.079 475.49 190.523 519.934 194.118C615.032 200.981 702.287 244.772 722.875 345.425C733.986 389.87 718.954 435.621 710.457 479.085C706.535 500.654 709.803 522.876 709.477 545.098C709.15 567.647 702.941 590.196 694.444 611.111C689.215 625.491 680.065 638.236 670.588 650C654.901 668.955 639.215 688.236 619.28 702.942C614.705 706.21 606.535 707.843 600.98 708.497C585.62 710.785 570.588 711.438 555.228 710.458C495.097 707.843 430.718 678.758 406.535 620.589C405.555 618.301 408.823 616.667 410.13 618.628C441.503 668.301 499.019 692.811 556.209 696.079C573.856 697.059 591.829 696.732 609.15 693.138C617.646 688.889 625.163 681.373 632.352 674.51C649.999 656.863 667.973 637.909 680.718 616.34C696.078 587.255 704.575 555.556 701.96 522.549C701.307 507.843 700.98 492.484 703.921 477.778C706.535 463.072 709.803 449.02 711.764 433.987C713.725 419.608 714.705 404.902 714.705 390.523C713.071 348.366 699.346 304.902 672.548 272.223C613.398 198.693 473.529 179.412 394.771 229.739C345.097 260.458 321.895 317.974 314.378 373.857C302.941 440.85 306.209 506.863 359.477 555.556L375.163 571.896C381.372 579.085 370.261 587.582 365.032 579.739Z" fill="black"/>
<path d="M403.593 475.817C403.593 475.817 393.462 426.797 345.75 432.679C304.573 437.908 290.194 536.601 383.658 564.052" fill="#F7F7F7"/>
<path d="M379.411 521.242C371.895 516.994 366.666 509.804 366.339 500.981C366.666 494.445 367.646 486.929 366.012 480.393C365.032 474.184 358.496 472.55 353.594 472.876C348.365 473.857 345.097 480.393 344.117 485.622C344.117 485.948 343.79 486.929 343.79 487.256C343.463 488.889 340.849 488.889 340.195 487.256C335.947 474.51 345.424 460.458 359.15 462.092C378.431 463.399 381.045 483.661 377.45 499.02C375.49 505.556 378.104 511.438 381.699 516.994L382.352 517.974C383.986 519.935 381.372 522.55 379.411 521.242Z" fill="black"/>
<path d="M640.848 441.177C645.75 464.379 654.901 485.948 666.338 506.209C676.469 531.046 650.325 554.575 627.123 553.595C624.508 553.595 624.182 550 626.469 549.347C641.175 544.771 654.574 534.968 656.861 519.935C657.842 515.36 656.535 511.438 654.247 507.517C643.463 487.255 636.927 464.052 638.561 441.177C638.561 439.543 640.848 439.543 640.848 441.177Z" fill="black"/>
<path d="M401.96 476.144C394.444 456.863 378.104 438.562 356.208 438.889C354.248 438.562 350.98 439.216 349.019 439.216C343.463 439.543 338.888 441.504 334.64 445.425C313.725 466.34 317.32 503.268 334.313 526.471C340.195 534.641 347.712 541.83 356.208 547.713C364.705 553.595 374.182 558.17 384.313 562.092C386.601 562.745 385.62 566.34 383.333 566.013C361.437 561.438 340.522 550.654 326.143 532.68C303.921 505.883 299.346 461.111 325.816 434.968C331.699 429.739 339.869 425.817 348.039 425.817C350.653 425.817 354.574 425.164 357.189 425.817C370.914 426.471 383.986 433.334 392.483 444.118C399.999 453.268 404.248 464.379 405.555 475.491C405.555 477.451 402.614 478.105 401.96 476.144Z" fill="black"/>
<path d="M608.495 584.968C608.822 595.752 592.809 623.203 562.09 610.458C532.352 598.366 523.528 541.504 566.012 568.628C587.58 583.007 601.306 585.294 608.495 584.968Z" fill="#F7F7F7"/>
<path d="M615.358 585.294C606.535 588.236 598.038 585.621 589.868 582.68C577.776 578.432 567.973 570.589 556.535 565.033C540.848 557.517 534.639 567.647 538.888 582.353C543.136 598.04 556.861 611.765 573.855 612.419C588.888 614.053 604.901 600.327 603.593 584.968C602.286 578.432 611.763 576.471 613.397 582.68C613.071 593.791 606.208 601.634 599.018 608.17C584.639 619.935 562.744 617.321 548.365 606.536C537.254 597.713 528.103 583.66 530.064 568.628C530.718 562.092 536.927 554.576 543.79 554.249C559.803 552.942 569.28 563.726 581.698 570.915C591.502 576.471 602.613 583.334 614.051 582.353C616.012 581.7 617.319 584.314 615.358 585.294Z" fill="black"/>
<path d="M539.54 573.202C544.768 580.719 552.938 584.64 561.435 586.601C563.396 587.255 565.03 587.255 566.664 587.255C569.605 587.255 572.546 589.542 574.18 591.176C582.023 597.385 592.808 598.366 602.612 598.693C604.899 598.693 604.899 602.614 602.612 602.287C592.154 601.634 581.043 600.653 571.239 595.751C569.278 595.098 568.298 594.444 566.664 594.444C560.455 595.098 555.553 591.176 550.978 588.562C545.749 585.621 540.52 582.68 534.311 581.372C531.37 580.719 529.736 578.104 530.062 575.163C530.716 570.588 537.252 569.281 539.54 573.202Z" fill="black"/>
<path d="M566.992 406.536C574.182 407.517 579.737 400 577.123 392.811C575.816 388.889 573.528 385.295 569.933 383.007C558.822 376.144 517.319 375.491 495.423 391.177C475.816 405.556 534.312 401.961 566.992 406.536Z" fill="black"/>
<path d="M657.515 410.131C651.633 410.131 648.038 402.615 650.979 396.406C652.613 393.138 654.9 390.196 658.168 388.562C668.299 383.66 695.423 386.602 707.515 403.268C718.299 417.974 684.639 409.804 657.515 410.131Z" fill="black"/>
<path d="M554.9 448.693C538.234 441.504 519.28 443.464 501.959 447.386C499.999 448.04 498.691 445.425 500.325 444.118C515.358 431.7 543.789 430.066 555.881 447.059C556.861 447.713 556.208 449.02 554.9 448.693Z" fill="black"/>
<path d="M683.332 455.556C675.489 450.001 664.051 450.981 654.9 451.962C651.633 452.288 648.365 452.942 644.77 453.922C643.789 454.249 642.809 452.615 643.463 451.962L644.116 451.308C652.286 442.811 665.031 440.85 676.142 445.099C680.064 446.733 683.985 449.02 685.946 453.596C686.927 455.23 684.639 456.864 683.332 455.556Z" fill="black"/>
<path d="M758.17 369.608C749.019 398.039 727.124 421.896 713.072 437.909C716.34 422.549 713.398 413.399 714.052 402.614C715.032 387.909 720.261 371.569 719.281 365.033C718.627 359.15 717.32 353.595 716.013 347.713C714.379 340.523 712.418 333.66 710.13 326.797C658.823 376.797 570.915 327.451 570.915 327.451C570.915 327.451 552.287 342.811 519.608 339.216C484.64 335.621 475.163 314.052 475.163 314.052C465.686 380.065 403.268 354.902 414.706 420.588C417.974 438.562 417.974 455.882 402.614 473.856C400 464.706 387.255 427.451 345.425 432.68C305.882 437.582 290.849 529.085 372.549 560.458C371.568 590.85 374.836 632.026 371.568 621.242C348.693 550.654 302.941 561.765 281.372 508.497C271.242 483.007 272.876 460.458 278.104 443.791C283.333 427.778 283.006 410.458 277.778 394.445C271.895 375.817 267.32 347.713 278.104 313.726C296.405 255.556 335.621 242.157 345.751 235.294C355.882 228.431 350.98 165.686 421.895 146.079C478.431 130.392 520.915 163.399 533.333 161.111C545.751 158.824 632.679 101.634 699.673 155.556C764.379 207.843 740.196 269.608 740.196 269.608C740.196 269.608 780.392 300.654 758.17 369.608Z" fill="black"/>
<path d="M543.138 685.621C536.929 686.274 533.334 692.81 536.275 698.366C542.158 709.477 557.19 715.686 566.668 719.608C582.354 726.47 584.641 726.144 595.426 728.431C613.073 732.026 622.877 724.183 627.125 719.281C631.373 714.379 634.315 709.477 639.87 697.059C642.485 691.176 648.04 691.176 649.021 686.274C650.328 678.104 630.393 663.725 623.857 660.457C612.746 654.575 593.138 659.15 573.53 674.51C562.419 682.026 551.308 684.64 543.138 685.621Z" fill="black"/>
<path d="M941.83 275.49C1140.2 657.516 791.503 1088.56 375.817 983.333C189.216 936.928 39.2157 775.163 8.16995 585.294C-27.1242 396.405 58.1699 193.464 217.647 86.6013C436.274 -63.7255 739.216 -13.7255 895.752 201.307C896.732 202.288 896.405 203.922 895.098 204.902C894.118 205.882 892.484 205.556 891.503 204.248C869.935 176.471 845.425 151.307 818.627 128.758C774.51 91.1765 722.876 61.7647 668.301 41.8301C390.523 -58.8235 85.6209 108.497 24.8366 399.02C-43.7908 724.51 233.007 1024.18 563.072 979.412C817.647 947.386 1006.86 712.418 985.948 456.863C981.373 395.098 965.033 333.987 937.908 277.778C937.255 276.797 937.908 275.49 938.889 274.837C939.869 274.183 941.176 274.51 941.83 275.49Z" fill="black"/>
</g>
</svg>
