<svg width="1021" height="299" viewBox="0 0 1021 299" fill="none" xmlns="http://www.w3.org/2000/svg">
<path d="M897.564 188.284C864.411 193.167 833.257 202.53 803.458 219.474C801.167 212.613 798.328 206.873 797.4 200.85C793.542 175.808 790.293 150.676 786.722 125.59C786.279 122.48 787.004 121.045 790.248 119.684C801.518 114.955 810.574 107.554 816.41 96.7064C817.054 95.5079 818.301 94.2348 819.558 93.7988C830.92 89.8573 838.533 81.5288 845.744 72.6873C846.263 72.0514 846.775 71.4096 847.321 70.7961C851.576 66.0087 851.382 66.2258 856.3 70.5197C874.538 86.446 895.276 91.4801 918.616 83.2717C923.535 81.5418 926.712 81.7088 930.162 86.2055C944.941 105.472 965.769 112.363 989.997 112.888C990.314 114.589 990.705 116.302 990.945 118.035C993.482 136.364 996.2 154.673 998.388 173.042C999.025 178.384 998.284 183.912 997.872 189.332C997.674 191.948 996.832 193.102 993.226 191.966C977.126 186.895 960.544 183.517 943.59 184.218C928.378 184.847 913.226 186.831 897.564 188.284ZM874.386 155.29C874.65 155.498 874.884 155.826 875.182 155.896C886.973 158.659 897.743 155.187 908.187 150.377C909.16 149.929 909.849 147.28 909.431 146.06C909.107 145.118 906.699 144.119 905.473 144.367C902.559 144.954 899.873 146.704 896.957 147.197C890.351 148.314 883.672 149.063 877 149.747C873.439 150.112 871.898 151.3 874.386 155.29ZM872.44 133.692C876.17 132.988 877.781 129.99 877.069 127.155C876.518 124.963 873.897 122.49 871.627 121.685C868.467 120.565 865.76 122.628 864.486 125.748C862.818 129.835 865.747 133.058 872.44 133.692Z" fill="#F5831F"/>
<path d="M676.274 233.58C656.211 230.811 636.373 229.293 616.682 232.045C601.995 234.097 587.5 237.761 573.105 241.411C565.036 243.456 557.344 246.932 549.502 249.756C545.59 242.129 540.373 154.873 542.572 133.833C548.245 132.759 552.625 136.409 557.525 138.021C563.203 139.89 568.704 142.691 574.525 143.616C581.529 144.728 588.123 142.237 594.086 138.257C603.299 132.106 613.136 126.611 624.683 129.134C632.53 130.849 640.089 134.22 647.461 137.527C655.81 141.272 664.307 144.522 673.38 141.987C679.585 140.253 685.682 137.351 691.098 133.878C700.483 127.861 710.157 125.806 721.028 128.581C730.887 131.096 731.153 130.957 731.802 141.337C733.549 169.243 735.426 197.15 736.46 225.084C736.733 232.464 734.065 239.934 732.896 247.384C732.393 250.588 730.692 250.795 728.275 249.537C713.604 241.9 697.667 237.992 681.657 234.311C680.032 233.938 678.315 233.948 676.274 233.58ZM617.987 171.255C615.618 174.216 616.383 177.179 619.146 178.922C620.883 180.017 624.022 180.371 625.879 179.582C629.282 178.135 630 174.902 628.179 171.64C626.428 168.503 622.6 168.229 617.987 171.255ZM653.675 170.637C651.19 173.317 651.007 176.137 654.135 178.196C656.526 179.77 659.2 181.324 662.166 178.25C664.7 175.624 664.547 173.006 662.639 170.774C660.377 168.129 657.292 167.296 653.675 170.637Z" fill="#FCB900"/>
<path d="M303.686 66.8759C309.7 63.0342 315.333 59.2707 321.295 55.2871C327.703 62.4594 335.999 67.0155 346.336 66.9059C356.43 66.7989 365.305 63.0676 372.057 57.819C378.449 62.854 383.98 68.1162 390.373 72.0237C398.802 77.1757 408.421 76.7021 417.862 74.9407C420.438 74.46 422.815 72.9426 425.391 72.4805C426.658 72.2533 428.896 72.9393 429.467 73.9076C438.839 89.8036 463.714 95.9358 481.061 87.4418C483.384 86.3044 484.422 86.7147 485.64 89.1784C487.502 92.9463 489.924 96.5155 492.551 99.8326C494.934 102.842 496.353 105.747 495.749 109.716C493.112 127.048 490.672 144.409 488.153 161.809C442.566 157.672 405.322 171.381 378.332 208.816C366.519 162.569 333.405 141.392 287.156 135.029C287.698 130.615 288.153 126.379 288.748 122.162C291.09 105.566 293.586 88.9904 295.777 72.3756C296.409 67.5807 301.243 69.3257 303.686 66.8759ZM408.77 128.435C401.846 133.063 394.191 134.076 386.114 132.705C382.308 132.059 378.573 130.91 374.75 130.526C373.307 130.381 370.882 131.419 370.413 132.53C369.962 133.597 371.157 136.529 372.153 136.802C382.803 139.72 393.78 142.045 404.514 138.274C409.466 136.534 413.689 132.54 417.859 129.119C418.785 128.359 418.094 125.705 418.148 123.923C416.477 124.179 414.661 124.12 413.176 124.78C411.701 125.435 410.561 126.814 408.77 128.435ZM375.364 92.6395C371.125 90.487 367.559 91.9665 366.624 95.9877C366.11 98.2013 368.027 101.979 370.053 103.389C371.451 104.362 375.61 103.243 377.3 101.731C380.595 98.784 378.85 95.5193 375.364 92.6395ZM408.785 109.932C412.329 110.552 414.518 108.745 414.957 105.641C415.222 103.769 414.654 100.692 413.381 99.9603C411.513 98.8857 408.477 98.8156 406.331 99.5007C405.018 99.9202 404.016 102.462 403.623 104.212C402.894 107.465 405.261 108.888 408.785 109.932Z" fill="#90A1FC"/>
<path d="M133.615 206.742C93.1085 204.467 53.2695 205.656 12.8584 212.063C13.8616 183.677 14.862 155.373 15.8987 126.04C26.4969 131.464 36.7339 132.728 47.3499 131.876C57.3522 131.072 66.7512 128.372 75.7651 124.067C77.4915 123.242 80.2346 122.846 81.8233 123.615C95.9436 130.444 109.856 129.709 123.631 122.947C126.441 121.568 128.492 121.441 131.517 122.802C143.381 128.139 155.679 129.691 168.442 125.643C170.159 125.098 172.963 125.518 174.331 126.612C186.641 136.457 200.01 136.124 214.008 131.159C215.479 130.637 217 130.249 219.128 129.611C218.013 160.115 216.927 189.828 215.816 220.207C189.193 210.651 161.926 207.066 133.615 206.742ZM136.665 165.888C123.501 165.364 110.34 164.728 97.1713 164.377C92.7715 164.26 90.3812 168.392 92.2594 172.319C97.1365 182.514 106.452 186.167 116.851 186.922C126.663 187.635 134.09 182.803 139.416 174.662C141.893 170.875 142.042 168.061 136.665 165.888ZM102.927 150.521C101.372 148.711 100.093 145.856 98.1874 145.372C96.0929 144.84 92.9331 145.931 91.1822 147.398C90.1068 148.299 89.9361 151.916 90.9037 153.095C92.4074 154.927 95.4606 156.969 97.425 156.615C99.5346 156.235 101.145 153.192 102.927 150.521ZM131.777 147.696C131.231 148.078 130.387 148.351 130.19 148.863C129.321 151.126 127.331 154.653 128.156 155.519C129.922 157.376 133.24 158.754 135.799 158.58C137.249 158.482 139.291 155.041 139.604 152.901C140.357 147.744 135.49 148.544 131.777 147.696Z" fill="#BAA0F6"/>
<path d="M164.255 112.686C165.47 114.98 166.531 116.913 167.728 119.093C154.997 122.716 143.704 121.336 133.391 116.189C135.289 110.837 136.968 106.055 138.68 101.284C140.62 95.875 139.427 90.7544 136.954 85.8855C133.891 79.8538 129.786 77.8016 123.442 78.708C118.878 79.36 114.65 83.9682 113.508 89.9188C111.962 97.9787 113.762 105.494 118.754 111.949C121.598 115.628 121.491 116.856 116.845 118.712C106.941 122.668 94.3331 122.914 85.4823 117.414C87.0896 113.198 89.6454 109.017 90.1214 104.62C90.7478 98.8334 90.3192 92.7733 89.2516 87.026C88.3765 82.3141 84.3772 79.5533 79.4167 79.1022C73.9157 78.6018 70.6204 82.0952 68.2782 86.3017C63.0671 95.6607 64.3166 104.739 70.1379 113.446C70.9682 114.688 71.7959 115.932 73.4283 118.379C66.4061 120.555 59.9445 123.499 53.1927 124.439C41.9184 126.009 30.548 125.996 19.8954 120.565C17.2372 119.209 16.2475 117.808 16.2422 114.887C16.2077 95.5407 30.734 75.6568 49.9824 68.9537C59.9511 65.4821 70.1426 65.5521 80.5844 66.1305C97.5375 67.0695 114.543 67.0791 131.522 67.5933C144.59 67.9891 157.685 68.149 170.711 69.136C196.213 71.0683 215.418 89.0158 219.156 114.037C219.836 118.596 218.691 121.368 214.115 123.457C204.09 128.031 194.131 129.273 183.797 124.893C178.407 122.608 178.127 120.986 182.211 116.712C188.798 109.82 190.993 97.1694 186.935 89.4967C183.804 83.5787 179.46 81.1975 173.501 82.1335C168.319 82.9476 163.268 88.2424 162.127 93.4244C160.682 99.992 161.606 106.21 164.255 112.686Z" fill="#EB343E"/>
<path d="M816.636 48.3444C820.69 47.4344 824.328 46.5393 828.021 46.0456C861.019 41.6335 894.085 37.6629 927.013 32.7978C948.463 29.6287 970.989 41.5903 980.039 60.31C982.319 65.0266 984.025 70.1817 984.958 75.3164C986.768 85.273 987.842 95.3582 989.224 105.403C970.361 107.091 945.652 98.2601 933.101 78.3513C937.591 77.7578 941.685 76.9455 945.808 76.7615C948.875 76.6247 951.586 75.9493 951.432 72.7687C951.379 71.6923 947.727 69.6437 946.126 69.9675C936.921 71.8286 927.571 73.5443 918.765 76.6562C897.274 84.2511 876.072 79.7863 859.881 64.5112C857.911 62.6524 857.051 61.0361 860.301 58.7001C872.124 50.2037 884.475 49.4482 897.631 54.9483C898.846 55.4563 900.235 56.2131 901.397 56.0185C902.648 55.8092 904.318 54.8244 904.702 53.7857C905.031 52.8979 904.13 50.8068 903.209 50.355C890.154 43.9547 875.43 41.4659 861.275 50.6947C852.547 56.3854 845.555 63.3511 839.285 71.4156C830.164 83.1484 818.182 90.1731 802.755 88.8421C797.5 88.3887 792.364 85.5079 787.466 83.1516C786.555 82.7134 786.336 79.2086 786.995 77.5857C792.178 64.8092 800.997 55.2861 814.008 49.7357C814.783 49.4051 815.501 48.9452 816.636 48.3444Z" fill="#536CEB"/>
<path d="M722.86 111.381C724.91 115.269 726.814 118.813 729.115 123.098C722.008 122.18 716.276 121.001 710.508 120.79C700.092 120.408 692.115 126.558 683.778 131.455C673.858 137.282 663.884 137.62 653.361 133.004C645.288 129.464 637.122 125.944 628.683 123.436C616.836 119.915 606.066 123.703 595.847 129.771C591.012 132.642 586.033 136.073 580.691 137.088C576.142 137.952 570.835 136.177 566.125 134.741C559.883 132.837 553.818 130.293 547.873 127.605C546.845 127.14 545.881 124.146 546.428 123.083C553.872 108.63 565.547 99.0307 582.068 96.8366C594.483 95.1877 607.12 95.1151 619.662 94.4136C634.728 93.5709 649.791 92.5613 664.87 92.0947C674.476 91.7976 684.245 91.4312 693.697 92.7605C705.831 94.4669 715.187 101.656 722.86 111.381Z" fill="#F2811E"/>
<path d="M350.239 170.621C362.411 183.059 369.311 197.585 372.016 215.489C365.775 214.678 360.159 214.056 354.58 213.2C342.758 211.387 330.546 210.74 319.24 207.276C300.686 201.591 289.818 188.371 285.097 169.563C282.733 160.144 285.076 151.61 286.065 141.821C310.606 144.969 332.638 152.484 350.239 170.621Z" fill="#00B047"/>
<path d="M426.2 223.244C415.55 221.669 405.315 220.284 395.091 218.831C391.088 218.262 387.108 217.539 382.519 216.789C387.108 207.134 393.615 199.61 401.242 193.077C414.313 181.88 429.435 174.662 446.378 170.62C457.773 167.902 469.154 167.462 480.677 168.171C486.879 168.553 486.757 169.264 486.179 175.271C485.1 186.488 481.659 196.54 474.051 205.202C461.471 219.524 445.648 225.398 426.2 223.244Z" fill="#00B047"/>
<path d="M910.745 192.734C925.783 192.184 940.404 190.591 954.855 191.522C967.098 192.31 979.164 195.939 991.244 198.591C992.11 198.781 993.359 201.708 992.899 202.613C987.628 212.962 979.883 221.719 968.727 225.204C956.752 228.946 943.997 230.338 931.542 232.528C925.2 233.643 918.782 234.414 912.365 234.978C911.049 235.094 908.5 233.757 908.352 232.813C906.367 220.193 904.708 207.523 902.88 194.226C904.704 193.869 907.478 193.327 910.745 192.734Z" fill="#ED343F"/>
<path d="M897.462 213.543C898.66 219.731 899.65 225.476 900.975 231.145C901.815 234.741 901.325 236.697 896.988 237.211C882.329 238.948 867.738 241.261 853.065 242.852C835.405 244.767 821.042 238.173 808.416 224.918C835.195 208.724 864.235 201.224 894.943 195.236C895.824 201.643 896.609 207.355 897.462 213.543Z" fill="#ED343F"/>
<path d="M44.1058 220.214C44.0791 218.436 44.0791 217.131 44.0791 214.714C67.7803 214.054 91.2188 213.4 115.168 212.732C115.168 216.134 115.286 218.582 115.147 221.015C114.615 230.305 113.879 239.586 113.485 248.881C113.358 251.89 112.421 252.928 109.281 252.809C88.9497 252.038 68.6138 251.371 48.2757 250.799C44.7785 250.701 44.5276 248.529 44.4802 246.132C44.3126 237.652 44.2407 229.17 44.1058 220.214Z" fill="#F8B600"/>
<path d="M418.243 21.0503C427.724 22.3475 436.748 23.6235 446.404 24.9889C444.286 41.5186 440.874 57.0841 424.726 65.4143C410.715 72.6415 389.829 71.3982 379.562 54.2617C378.819 53.0217 378.773 50.738 379.43 49.4384C383.609 41.168 385.962 32.4555 386.664 23.2981C386.998 18.941 388.487 16.6837 393.636 17.6162C401.628 19.0633 409.73 19.9213 418.243 21.0503Z" fill="#FAB700"/>
<path d="M380.502 22.24C378.357 29.9132 376.984 37.4252 374.224 44.4098C370.938 52.7235 363.542 57.0026 355.253 60.1144C340.144 65.7873 326.054 55.093 322.527 43.9304C320.76 38.3395 320.186 32.3496 319.455 26.4942C319.01 22.9285 320.813 20.5278 324.252 18.6512C334.223 13.2108 344.829 11.3936 355.981 12.6057C364.337 13.5139 372.631 14.962 381.375 16.2309C381.109 18.3248 380.885 20.0851 380.502 22.24Z" fill="#F9B700"/>
<path d="M448.91 45.0054C450.476 38.5625 451.937 32.5059 453.52 25.9419C464.696 26.8323 474.715 31.145 482.712 38.9909C487.49 43.6791 491.391 49.3961 494.892 55.1179C498.349 60.7685 494.014 65.5664 491.398 70.1942C482.755 85.4823 458.528 89.7046 441.89 78.1318C440.675 77.2868 439.432 76.4418 438.375 75.4238C432.617 69.8773 433.174 70.251 437.896 64.0269C442.225 58.32 445.222 51.6418 448.91 45.0054Z" fill="#FAB700"/>
<path d="M159.855 215.358C166.024 216.038 171.725 216.651 177.41 217.393C180.448 217.79 182.205 219.242 182.084 222.662C181.737 232.466 181.569 242.277 181.429 252.087C181.395 254.465 180.817 255.89 178.002 255.751C159.045 254.814 140.086 253.935 120.537 253.009C121.342 239.836 122.127 226.997 122.974 213.136C135.14 213.874 147.26 214.609 159.855 215.358Z" fill="#F9B700"/>
<path d="M587.218 281.285C573.841 280.074 564.006 272.958 555.859 263.103C554.388 261.324 553.229 259.297 551.586 256.885C562.587 250.37 574.505 247.034 586.656 243.665C587.196 248.033 586.82 252.334 588.323 255.865C594.124 269.496 606.174 269.954 616.147 264.548C623.75 260.427 629.725 253.419 636.166 247.916C637.265 256.814 638.514 266.931 639.407 277.643C635.994 278.607 632.938 278.976 629.505 279.194C615.158 279.791 601.188 280.538 587.218 281.285Z" fill="#5CC2D9"/>
<path d="M644.609 261.591C644.518 260.352 644.427 259.114 644.284 257.218C644.231 256.56 644.008 256.313 644.008 256.313C643.607 253.065 643.206 249.816 642.805 246.568C643.214 246.386 643.623 246.204 644.032 246.023C647.323 249.241 650.222 253.022 653.996 255.549C660.145 259.665 666.536 263.819 673.435 266.371C680.756 269.079 688.484 266.638 693.223 260.854C696.381 256.999 696.79 250.979 698.81 244.754C708.031 248.254 718.134 252.089 728.804 256.139C717.458 270.504 704.207 278.424 686.188 276.852C684.861 276.737 683.492 277.088 681.249 277.243C676.526 277.44 672.699 277.709 668.868 277.772C662.705 277.873 656.538 277.754 650.377 277.9C647.656 277.965 646.459 277.023 646.23 274.29C645.875 270.042 645.167 265.823 644.609 261.591Z" fill="#5CC2D9"/>
<path d="M676.755 239.931C677.94 240.313 678.701 240.829 679.498 240.891C683.744 241.219 688.371 241.186 690.113 245.945C691.715 250.321 691.756 255.2 688.174 258.583C684.36 262.186 678.72 262.829 674.38 260.513C667.143 256.651 660.449 251.719 653.875 246.79C650.916 244.571 648.798 241.274 646.298 238.467C646.5 237.959 646.702 237.452 646.904 236.945C656.719 237.915 666.533 238.885 676.755 239.931Z" fill="#B49BEE"/>
<path d="M598.215 260.411C593.434 256.529 591.611 249.772 593.955 244.638C594.56 243.314 596.045 241.651 597.327 241.464C608.021 239.901 618.759 238.628 629.493 237.339C630.214 237.253 631.007 237.747 631.748 237.966C628.436 252.406 613.092 262.756 598.215 260.411Z" fill="#B49BEE"/>
<path d="M191.082 256.001C190.137 254.85 189.182 253.737 189.196 252.636C189.323 242.667 189.606 232.7 189.891 222.734C189.912 221.989 190.303 221.254 190.675 219.998C198.102 222.475 205.254 224.705 212.237 227.361C213.237 227.742 214.24 230.433 213.856 231.625C210.934 240.677 206.19 248.786 198.693 254.91C197.092 256.217 193.953 255.714 191.082 256.001Z" fill="#F3B200"/>
<path d="M20.7484 240.715C17.7972 234.194 15.126 227.909 11.8428 220.185C20.1244 218.872 26.8291 217.684 33.5823 216.894C34.4547 216.792 36.4295 218.732 36.4528 219.758C36.6747 229.51 36.5851 239.269 36.5851 249.053C28.8597 251.128 25.932 249.617 20.7484 240.715Z" fill="#F4B300"/>
<path d="M109.838 260.206C111.244 261.863 112.249 263.471 113.627 265.678C103.12 265.678 94.174 265.794 85.2329 265.643C77.4359 265.512 69.6245 265.316 61.8574 264.693C57.0424 264.307 52.2638 263.216 47.5439 262.128C46.2055 261.82 45.1307 260.412 43.9351 259.508C44.1024 258.899 44.2697 258.289 44.4371 257.68C66.1037 258.505 87.7702 259.331 109.838 260.206Z" fill="#E0A400"/>
<path d="M300.155 47.1228C302.998 39.866 306.026 33.1961 311.994 28.6182C313.603 34.904 315.254 40.8838 316.574 46.9331C316.817 48.044 316.092 49.8896 315.173 50.6246C309.921 54.822 304.474 58.786 299.094 62.8293C298.435 62.4267 297.776 62.0242 297.116 61.6216C298.078 56.9103 299.039 52.1989 300.155 47.1228Z" fill="#EDAE00"/>
<path d="M174.334 267.169C159.206 267.268 144.456 267.245 129.708 267.11C126.691 267.082 123.677 266.632 120.212 266.339C120.3 264.455 120.372 262.901 120.464 260.924C140.649 261.284 160.422 260.918 180.46 264.471C178.108 265.509 176.411 266.258 174.334 267.169Z" fill="#E2A600"/>
<path d="M790.931 111.867C788.971 112.668 787.345 113.289 784.67 114.31C784.065 105.619 783.528 97.8866 783.03 90.736C791.86 93.0222 799.615 95.0303 807.798 97.1493C804.425 103.36 798.27 107.947 790.931 111.867Z" fill="#4F66DF"/>
<path d="M168.295 93.4344C171.311 89.782 174.615 87.5802 179.057 89.5437C181.995 90.8425 184.686 99.7453 182.93 103.662C181.295 107.312 178.654 110.594 176.045 113.707C175.49 114.37 172.118 114.076 171.814 113.426C168.899 107.202 165.283 101 168.295 93.4344Z" fill="#E3323C"/>
<path d="M70.7661 97.8444C71.1469 93.3009 71.1787 88.993 75.7444 86.7477C78.7059 85.2914 81.0705 85.4321 83.0167 88.6257C87.2131 95.5122 86.426 104.456 81.4431 110.998C79.1467 114.013 77.2646 113.228 76.0856 111.001C73.9384 106.945 72.509 102.524 70.7661 97.8444Z" fill="#E0313B"/>
<path d="M119.076 98.0954C118.482 93.2823 117.509 88.753 122.329 85.7553C125.984 83.4814 128.629 84.7361 130.72 87.9848C134.41 93.7183 133.709 104.032 129.524 109.462C127.694 111.836 126.169 111.537 124.894 109.347C122.837 105.815 121.069 102.12 119.076 98.0954Z" fill="#E4323C"/>
<path d="M495.092 76.3974C496.399 74.7631 497.444 73.393 498.489 72.0229C499.017 72.1177 499.545 72.2124 500.074 72.3071C499.442 79.6305 498.811 86.9539 498.089 95.3276C489.349 86.0962 489.116 84.218 495.092 76.3974Z" fill="#E1A500"/>
<path d="M608.832 282.001C610.55 281.667 612.618 281.407 615.124 281.19C613.436 281.515 611.308 281.795 608.832 282.001Z" fill="#997421"/>
<path d="M874.098 155.043C871.898 151.3 873.439 150.112 877 149.747C883.672 149.063 890.35 148.313 896.957 147.196C899.873 146.703 902.559 144.954 905.473 144.366C906.698 144.119 909.107 145.118 909.43 146.06C909.848 147.279 909.159 149.929 908.187 150.377C897.742 155.187 886.973 158.659 875.181 155.896C874.884 155.826 874.65 155.498 874.098 155.043Z" fill="#1B0E03"/>
<path d="M872.185 133.902C865.747 133.058 862.818 129.835 864.486 125.748C865.759 122.628 868.467 120.565 871.627 121.685C873.897 122.49 876.518 124.963 877.068 127.155C877.781 129.99 876.17 132.988 872.185 133.902Z" fill="#140B03"/>
<path d="M900.31 129.739C893.872 128.895 890.943 125.672 892.611 121.585C893.884 118.465 897.085 116.106 900.245 117.226C902.515 118.03 904.933 119.45 905.484 121.642C906.196 124.477 904.295 128.825 900.31 129.739Z" fill="#140B03"/>
<path d="M618.25 170.979C622.6 168.229 626.428 168.503 628.179 171.64C630 174.902 629.282 178.135 625.879 179.582C624.022 180.371 620.883 180.018 619.146 178.922C616.382 177.179 615.618 174.216 618.25 170.979Z" fill="#1A1300"/>
<path d="M653.987 170.428C657.292 167.296 660.377 168.129 662.639 170.774C664.547 173.006 664.7 175.624 662.166 178.251C659.2 181.324 656.526 179.77 654.135 178.196C651.007 176.137 651.19 173.318 653.987 170.428Z" fill="#221900"/>
<path d="M409.022 128.155C410.561 126.813 411.701 125.435 413.176 124.78C414.661 124.12 416.477 124.179 418.148 123.923C418.094 125.705 418.785 128.359 417.859 129.119C413.689 132.54 409.466 136.534 404.514 138.274C393.78 142.045 382.803 139.72 372.153 136.802C371.157 136.529 369.962 133.597 370.413 132.53C370.882 131.419 373.307 130.381 374.75 130.526C378.573 130.909 382.308 132.059 386.114 132.705C394.191 134.075 401.846 133.063 409.022 128.155Z" fill="#0F111B"/>
<path d="M375.714 92.7427C378.85 95.5193 380.595 98.784 377.3 101.731C375.61 103.243 371.451 104.362 370.053 103.389C368.027 101.979 366.109 98.2013 366.624 95.9877C367.559 91.9665 371.125 90.487 375.714 92.7427Z" fill="#0E1019"/>
<path d="M408.39 109.87C405.261 108.888 402.894 107.464 403.624 104.212C404.016 102.461 405.018 99.9198 406.331 99.5003C408.477 98.8152 411.513 98.8853 413.381 99.96C414.654 100.692 415.223 103.769 414.958 105.64C414.518 108.745 412.329 110.552 408.39 109.87Z" fill="#0B0C13"/>
<path d="M137.085 165.94C142.042 168.061 141.893 170.875 139.416 174.661C134.09 182.803 126.663 187.635 116.851 186.922C106.453 186.167 97.1366 182.514 92.2596 172.319C90.3813 168.392 92.7716 164.26 97.1714 164.377C110.34 164.727 123.501 165.364 137.085 165.94ZM112.314 179.494C122.388 181.148 129.649 178.827 132.871 172.142C121.834 172.142 111.217 172.142 100.457 172.142C102.507 176.737 107.324 177.598 112.314 179.494Z" fill="#100E16"/>
<path d="M102.951 150.916C101.146 153.192 99.535 156.235 97.4255 156.615C95.4611 156.969 92.4078 154.927 90.9042 153.095C89.9366 151.916 90.1073 148.299 91.1827 147.398C92.9335 145.931 96.0933 144.84 98.1879 145.372C100.093 145.856 101.372 148.711 102.951 150.916Z" fill="#14111B"/>
<path d="M132.136 147.571C135.491 148.543 140.357 147.744 139.604 152.9C139.291 155.041 137.249 158.482 135.799 158.58C133.24 158.753 129.923 157.375 128.156 155.519C127.331 154.653 129.321 151.126 130.19 148.862C130.387 148.351 131.231 148.078 132.136 147.571Z" fill="#14111A"/>
<path d="M111.913 179.417C107.325 177.598 102.507 176.737 100.458 172.142C111.217 172.142 121.835 172.142 132.871 172.142C129.649 178.827 122.388 181.148 111.913 179.417Z" fill="#A18BD5"/>
<path d="M615.769 203.957C615.769 203.957 625.652 209.751 639.732 209.101C654.407 208.423 666.06 203.528 666.06 203.528" stroke="black" stroke-width="7" stroke-linecap="round"/>
</svg>
