<svg width="263" height="279" viewBox="0 0 263 279" fill="none" xmlns="http://www.w3.org/2000/svg">
<path d="M219.745 236.324C213.547 239.945 208.693 242.531 204.148 245.53C194.542 251.944 184.007 253.703 172.645 252.254C168.617 251.737 164.588 251.323 160.56 251.634C150.438 252.358 141.658 249.358 133.498 243.669C131.226 242.117 129.367 240.048 126.991 238.6C119.038 233.841 113.563 234.876 106.746 241.393C98.7928 248.944 91.046 256.909 82.3696 263.53C65.74 276.253 46.1152 279.046 25.7671 277.908C15.025 277.288 7.48471 271.495 4.69589 261.047C-0.985039 239.427 1.18409 218.946 14.3019 200.119C19.7762 192.257 26.6967 189.671 35.5796 191.016C40.8474 191.843 46.0118 193.291 49.9368 194.222C55.6177 205.291 48.3874 213.153 47.7676 221.738C47.1479 230.324 46.0117 239.324 50.8663 248.427C60.0591 246.565 66.8762 241.806 71.8341 235.6C83.2993 221.118 93.8348 205.912 105.403 190.188C110.774 189.05 117.385 187.706 124.615 186.154C141.348 193.395 154.982 205.808 168.307 218.635C173.058 223.187 177.293 226.911 185.04 224.842C188.242 215.325 191.65 206.636 183.387 196.498C178.016 189.981 176.053 180.464 173.161 172.085C170.166 163.5 173.988 152.121 182.561 147.052C189.894 142.811 195.885 137.432 201.05 130.915C208.9 120.984 216.336 110.743 224.083 98.7439C210.552 95.0199 199.913 91.9165 187.932 100.399C180.185 105.881 169.34 102.157 160.56 98.8472C157.565 97.7093 155.189 92.744 154.156 89.02C151.367 79.8136 149.508 70.2969 147.339 60.9869C145.48 52.7114 141.555 45.7807 135.461 40.505C122.136 41.8498 116.868 51.6769 114.906 61.4006C111.807 77.1241 100.239 89.4338 98.9994 105.778C98.7928 108.364 94.9711 111.571 92.079 112.709C86.3981 114.881 80.4073 116.433 74.3132 117.157C69.6652 117.674 64.7072 116.64 59.9558 116.329C49.1104 115.605 41.6735 119.64 37.4387 130.294C33.2038 141.156 27.8329 151.5 32.171 162.879C23.2881 168.051 16.4711 166.603 10.2737 163.81C4.28288 161.12 0.461066 156.052 0.874225 149.017C1.80383 133.087 5.52236 117.674 11.3066 102.882C13.8888 96.0544 19.8795 92.0201 26.9032 90.4684C40.744 87.4685 54.7914 85.1927 69.7684 82.3997C74.3131 72.2623 79.7874 61.1938 84.2289 49.815C88.7736 38.1258 96.1072 28.1951 102.511 17.6439C115.732 -4.18277 131.536 -1.90686 147.959 8.23063C164.485 18.3681 178.223 32.5398 185.763 50.7459C190.411 61.9178 196.711 67.5037 208.59 67.2969C212.618 67.1934 216.749 69.2624 220.778 68.9521C229.041 68.3314 235.652 70.6071 240.61 77.4344C244.121 82.2963 249.802 82.917 254.967 84.779C260.958 87.0548 263.333 91.7096 262.404 97.8128C259.821 114.26 250.938 126.57 237.924 136.604C229.248 143.328 221.501 151.19 213.754 158.845C209.829 162.672 209.932 167.741 212.928 172.085C215.613 176.016 218.919 179.533 222.121 183.154C230.59 192.567 234.619 202.291 227.285 214.704C223.773 221.221 222.43 228.773 219.745 236.324ZM105.093 227.324C105.713 225.876 106.849 224.324 107.159 222.566C107.262 221.738 106.23 220.083 105.3 219.67C102.924 218.532 99.7224 221.221 100.549 223.6C100.859 224.428 102.305 225.049 105.093 227.324ZM250.629 100.709C249.906 100.089 249.182 99.4679 248.459 98.8472C248.15 99.261 247.427 100.089 247.53 100.192C248.15 100.916 248.873 101.433 249.596 102.054C250.009 101.537 250.319 101.123 250.629 100.709Z" fill="#FFC700"/>
</svg>
